<svg width="72" height="72" viewBox="0 0 72 72" fill="none" xmlns="http://www.w3.org/2000/svg">
<path d="M51.9019 31.5H69.5981C70.5519 31.5 71.073 32.6125 70.4623 33.3452L61.6143 43.9629C61.1645 44.5026 60.3355 44.5026 59.8858 43.9629L51.0377 33.3452C50.4271 32.6125 50.9481 31.5 51.9019 31.5Z" fill="#DAFF01"/>
<path d="M2.40193 40.5H20.0981C21.0519 40.5 21.573 39.3875 20.9623 38.6548L12.1143 28.0371C11.6645 27.4974 10.8355 27.4974 10.3858 28.0371L1.53768 38.6548C0.927062 39.3875 1.44811 40.5 2.40193 40.5Z" fill="#DAFF01"/>
<path fill-rule="evenodd" clip-rule="evenodd" d="M36 13.5C29.0138 13.5 22.7726 16.6813 18.6421 21.6828C17.8508 22.6409 16.4326 22.7761 15.4745 21.9849C14.5164 21.1936 14.3811 19.7754 15.1724 18.8172C20.121 12.8251 27.6148 9 36 9C49.2377 9 60.2461 18.5243 62.5549 31.0935C62.5797 31.2287 62.6035 31.3642 62.6263 31.5H58.0504C55.9668 21.23 46.8838 13.5 36 13.5ZM13.9496 40.5C16.0332 50.77 25.1162 58.5 36 58.5C42.9862 58.5 49.2275 55.3186 53.3579 50.3172C54.1492 49.3591 55.5674 49.2239 56.5255 50.0151C57.4837 50.8064 57.6189 52.2246 56.8276 53.1828C51.879 59.1749 44.3852 63 36 63C22.7623 63 11.7539 53.4757 9.44513 40.9065C9.4203 40.7713 9.39649 40.6358 9.37368 40.5H13.9496Z" fill="#DAFF01"/>
</svg>
