<svg width="49" height="40" viewBox="0 0 49 40" fill="none" xmlns="http://www.w3.org/2000/svg">
<path d="M0.588235 1.17647H7.22353L9.50588 8.04706C9.50588 8.05882 9.50588 8.05882 9.51765 8.07059L16.3882 28.6706L13.9529 31.1059C13.4353 31.6235 13.2941 32.3529 13.5647 33.0235C13.8471 33.7059 14.4706 34.1176 15.1882 34.1176H45.2941C45.6235 34.1176 45.8824 33.8588 45.8824 33.5294C45.8824 33.2 45.6235 32.9412 45.2941 32.9412H15.1882C14.8235 32.9412 14.6824 32.6588 14.6471 32.5765C14.6118 32.4941 14.5176 32.1882 14.7765 31.9412L17.3059 29.4118H42.9412C43.2118 29.4118 43.4471 29.2235 43.5059 28.9647L48.2118 10.1412C48.2588 9.97647 48.2235 9.78824 48.1176 9.64706C48.0118 9.50588 47.8471 9.42353 47.6824 9.41177L10.5059 7.30588L8.21177 0.4C8.12941 0.164706 7.90588 0 7.64706 0H0.588235C0.258824 0 0 0.258824 0 0.588235C0 0.917647 0.258824 1.17647 0.588235 1.17647ZM46.9059 10.5412L42.4824 28.2353H17.4824L10.9059 8.50588L46.9059 10.5412Z" fill="white"/>
<path d="M18.8235 37.0589C18.8235 38.6824 20.1411 40 21.7647 40C23.3882 40 24.7058 38.6824 24.7058 37.0589C24.7058 35.4353 23.3882 34.1177 21.7647 34.1177C20.1411 34.1177 18.8235 35.4353 18.8235 37.0589ZM21.7647 35.2941C22.7411 35.2941 23.5294 36.0824 23.5294 37.0589C23.5294 38.0353 22.7411 38.8236 21.7647 38.8236C20.7882 38.8236 20 38.0353 20 37.0589C20 36.0824 20.7882 35.2941 21.7647 35.2941Z" fill="white"/>
<path d="M35.2941 37.0589C35.2941 38.6824 36.6117 40 38.2352 40C39.8588 40 41.1764 38.6824 41.1764 37.0589C41.1764 35.4353 39.8588 34.1177 38.2352 34.1177C36.6117 34.1177 35.2941 35.4353 35.2941 37.0589ZM38.2352 35.2941C39.2117 35.2941 40 36.0824 40 37.0589C40 38.0353 39.2117 38.8236 38.2352 38.8236C37.2588 38.8236 36.4705 38.0353 36.4705 37.0589C36.4705 36.0824 37.2588 35.2941 38.2352 35.2941Z" fill="white"/>
<path d="M22.3882 24.3061C22.4706 24.5531 22.6941 24.7061 22.9412 24.7061C23 24.7061 23.0706 24.6943 23.1294 24.6708C23.4353 24.5649 23.6 24.2355 23.5059 23.9296L19.9765 13.3414C19.8706 13.0355 19.5412 12.8708 19.2353 12.9649C18.9294 13.0708 18.7647 13.4002 18.8588 13.7061L22.3882 24.3061Z" fill="white"/>
<path d="M36.8705 24.671C36.9294 24.6945 37 24.7063 37.0588 24.7063C37.3058 24.7063 37.5294 24.5533 37.6117 24.3063L41.1411 13.718C41.247 13.4121 41.0823 13.071 40.7647 12.9768C40.4588 12.871 40.1294 13.0357 40.0235 13.3533L36.4941 23.9415C36.4 24.2357 36.5647 24.5768 36.8705 24.671Z" fill="white"/>
<path d="M30 24.7056C30.3294 24.7056 30.5882 24.4468 30.5882 24.1174V13.5292C30.5882 13.1997 30.3294 12.9409 30 12.9409C29.6706 12.9409 29.4117 13.1997 29.4117 13.5292V24.1174C29.4117 24.4468 29.6706 24.7056 30 24.7056Z" fill="white"/>
</svg>
