<svg width="72" height="72" viewBox="0 0 72 72" fill="none" xmlns="http://www.w3.org/2000/svg">
<path d="M35.9393 71.9997C34.1959 71.9845 32.4572 71.3117 31.127 69.9815L2.01846 40.873C-0.672816 38.1817 -0.672825 33.8183 2.01846 31.127L31.127 2.01846C33.8183 -0.672816 38.1817 -0.672825 40.873 2.01846L69.9815 31.127C71.3117 32.4572 71.9845 34.1959 71.9997 35.9393C72.0001 35.9798 72.0001 36.0202 71.9997 36.0607C71.9845 37.8041 71.3117 39.5428 69.9815 40.873L40.873 69.9815C39.5428 71.3117 37.8041 71.9845 36.0607 71.9997C36.0202 72.0001 35.9798 72.0001 35.9393 71.9997ZM34.3757 5.26713L21.4457 18.1971L36 32.7513L50.5543 18.1971L37.6243 5.26713C36.7272 4.37003 35.2728 4.37003 34.3757 5.26713ZM39.2487 36L53.8029 50.5543L66.7329 37.6243C67.63 36.7272 67.63 35.2728 66.7329 34.3757L53.8029 21.4457L39.2487 36ZM36 39.2487L21.4457 53.8029L34.3757 66.7329C35.2728 67.63 36.7272 67.63 37.6243 66.7329L50.5543 53.8029L36 39.2487ZM32.7513 36L18.1971 21.4457L5.26713 34.3757C4.37003 35.2728 4.37003 36.7272 5.26713 37.6243L18.1971 50.5543L32.7513 36Z" fill="#DAFF01"/>
</svg>
